Coordinates
version=1
nRows=26
nColumns=24
inDegrees=yes

Units are S.I. units (second, meters, Newtons, ...)
If the header above contains a line with 'inDegrees', this indicates whether rotational values are in degrees (yes) or radians (no).

endheader
time	pelvis_tilt	pelvis_list	pelvis_rotation	pelvis_tx	pelvis_ty	pelvis_tz	hip_flexion_r	hip_adduction_r	hip_rotation_r	knee_angle_r	ankle_angle_r	subtalar_angle_r	mtp_angle_r	hip_flexion_l	hip_adduction_l	hip_rotation_l	knee_angle_l	ankle_angle_l	subtalar_angle_l	mtp_angle_l	lumbar_extension	lumbar_bending	lumbar_rotation
      1.25000000	      9.91085366	     -4.54138615	     -2.70900481	      0.58563811	      0.97381888	      0.03994005	    -29.90361601	      3.23954296	     -4.40921634	     -4.50933440	      6.19844830	     10.68397988	      0.00000000	     15.81835917	     -6.28099294	     -8.09144769	     -5.80343818	     -3.63723530	     10.72227576	      0.00000000	    -26.60656617	      3.74621898	      2.76429659
      1.26700000	      9.74792062	     -4.59301570	     -2.78892460	      0.58759913	      0.97155646	      0.03864254	    -30.03213322	      2.92016871	     -4.46374768	     -6.26820755	      6.18841265	     11.25812961	      0.00000000	     16.92250333	     -6.23333178	     -7.52215319	     -9.26838188	     -3.94213417	     10.06489344	      0.00000000	    -26.20208064	      3.51404545	      2.64888607
      1.28300000	      9.86027857	     -4.88801537	     -2.99918445	      0.58915792	      0.97039475	      0.03781344	    -30.06874405	      2.75368324	     -4.32452408	     -8.62027050	      5.65283739	     11.59367174	      0.00000000	     17.35121774	     -6.49600155	     -7.36843944	    -12.22605850	     -4.85367750	      9.38036676	      0.00000000	    -26.21327219	      3.40122796	      2.64387298
      1.30000000	      9.45971281	     -4.97723275	     -3.31051378	      0.59106988	      0.96900588	      0.03653790	    -29.33931642	      2.29151909	     -4.35117695	    -11.31308861	      4.99893414	     12.25162649	      0.00000000	     18.41211492	     -6.62577571	     -7.31024148	    -15.45448526	     -5.78259157	      8.69197095	      0.00000000	    -25.61803178	      3.06097574	      2.54654266
      1.31700000	      9.49326285	     -4.85660775	     -3.48179013	      0.59412929	      0.96905876	      0.03465653	    -28.62181599	      1.60842982	     -4.48222899	    -14.74966427	      3.78209794	     12.75083115	      0.00000000	     18.61184903	     -6.48063882	     -7.38349174	    -18.13831531	     -6.44257919	      8.21732304	      0.00000000	    -25.36599539	      2.63033471	      2.10412064
      1.33300000	      9.72948807	     -4.50327435	     -3.62455470	      0.59751976	      0.97006470	      0.03232526	    -27.62198802	      0.62374615	     -4.76303635	    -18.93437111	      2.19039593	     13.10295380	      0.00000000	     18.22955308	     -6.02178867	     -7.41070511	    -20.30295642	     -6.67236595	      7.68680886	      0.00000000	    -25.25556904	      1.96776443	      1.83650561
      1.35000000	      9.98812350	     -3.92499248	     -3.48180627	      0.60075120	      0.97133424	      0.02910707	    -25.98426195	     -0.59874079	     -5.66086878	    -24.11111487	      0.09911281	     13.39828130	      0.00000000	     17.63904466	     -5.16680790	     -6.96928734	    -22.09502129	     -6.53590318	      7.07163495	      0.00000000	    -25.10067275	      1.27818702	      1.11727033
      1.36700000	      9.97094621	     -3.04629058	     -3.40205928	      0.60364501	      0.97269263	      0.02518254	    -23.30448172	     -2.34157046	     -6.65234808	    -30.27463826	     -2.83386237	     13.50396151	      0.00000000	     16.98068743	     -3.99742782	     -6.92945901	    -23.26327782	     -6.16944594	      6.71433044	      0.00000000	    -24.81253632	      0.33542992	      0.40838496
      1.38300000	     10.01914110	     -2.07559612	     -3.38864271	      0.60624339	      0.97436569	      0.02131889	    -20.20794387	     -4.30301152	     -7.57902335	    -36.81050063	     -6.50271440	     12.55973571	      0.00000000	     15.90043551	     -2.76545477	     -7.22301850	    -23.88013471	     -5.40243088	      6.73189837	      0.00000000	    -24.55880299	     -0.69722021	     -0.12965948
      1.40000000	      9.58422611	     -0.81063395	     -3.31214426	      0.60771352	      0.97535476	      0.01709303	    -16.15704034	     -6.54616596	     -8.24013396	    -43.56235098	    -10.35834960	     10.86976393	      0.00000000	     15.26158744	     -1.10672477	     -7.23376620	    -24.15581871	     -4.66351109	      6.35581990	      0.00000000	    -23.80665932	     -1.92890240	     -1.06663110
      1.41700000	      9.00577384	      0.41200222	     -3.34059678	      0.60830981	      0.97652606	      0.01319301	    -11.73994220	     -8.69001020	     -8.36595706	    -49.93562870	    -13.93053871	      8.69266238	      0.00000000	     14.44178656	      0.53146362	     -7.31269993	    -23.74253644	     -3.91983041	      5.93188311	      0.00000000	    -23.03643609	     -3.13467367	     -1.81022831
      1.43300000	      8.89562815	      1.68933749	     -3.33059762	      0.60824693	      0.97839818	      0.00949404	     -7.90892162	    -10.74331878	     -8.10451784	    -55.61867715	    -15.96172936	      6.74165644	      0.00000000	     12.92118695	      2.29159588	     -7.25663037	    -22.86655930	     -3.22044536	      5.56829791	      0.00000000	    -22.80014225	     -4.38975086	     -2.54124118
      1.45000000	      8.94287972	      2.52791204	     -3.32012889	      0.60780946	      0.98095827	      0.00645724	     -4.41264647	    -12.02990804	     -7.52787720	    -60.46647364	    -15.96864170	      4.49609872	      0.00000000	     11.18126250	      3.54816465	     -7.17899863	    -21.92692292	     -2.50641695	      5.42859129	      0.00000000	    -22.69404085	     -5.18127082	     -3.18624359
      1.46700000	      8.80629341	      2.80438648	     -2.73816740	      0.60773346	      0.98415625	      0.00322853	     -1.26227826	    -12.40101973	     -7.41473975	    -64.19961657	    -14.48907716	      2.71525500	      0.00000000	      9.52416395	      4.18559067	     -6.74644333	    -20.89098627	     -1.83878865	      5.79091659	      0.00000000	    -22.50743123	     -5.20632877	     -4.19310575
      1.48300000	      9.28199684	      3.10286932	     -2.33193708	      0.60725301	      0.98809189	      0.00074427	      1.17168514	    -12.72251466	     -7.11115018	    -67.21357318	    -12.40619690	      1.67444194	      0.00000000	      6.90440969	      4.81264943	     -6.38128470	    -19.25352205	     -1.36265815	      6.23447580	      0.00000000	    -22.96001846	     -5.32693017	     -5.07942908
      1.50000000	      9.25243776	      3.33003016	     -1.77249713	      0.60626081	      0.99087406	     -0.00192729	      4.03769517	    -12.87002084	     -6.89024675	    -69.50232327	    -10.31282445	      1.21318537	      0.00000000	      5.08136034	      5.35587510	     -5.73789694	    -18.02752762	     -0.91353822	      6.24224101	      0.00000000	    -22.94881472	     -5.29295365	     -6.10298170
      1.51700000	      9.63240533	      3.64601634	     -1.05454859	      0.60592237	      0.99402551	     -0.00451483	      6.09173986	    -13.20087265	     -7.01837868	    -70.84185371	     -8.29282456	      1.50715714	      0.00000000	      2.41232036	      5.96435039	     -4.91168310	    -16.12105755	     -0.65827113	      6.40683717	      0.00000000	    -23.30667784	     -5.27917975	     -7.12001448
      1.53300000	      9.86825512	      3.81561344	     -0.23095282	      0.60542747	      0.99675300	     -0.00706906	      8.12619732	    -13.25684763	     -7.22105905	    -71.36216015	     -6.87558322	      1.73419987	      0.00000000	     -0.15214117	      6.36018464	     -3.82692628	    -14.10960623	     -0.53256580	      6.37162671	      0.00000000	    -23.55386949	     -5.04537212	     -8.46545991
      1.55000000	     10.16656367	      4.07276684	      0.27990186	      0.60446128	      0.99880149	     -0.00918868	     10.09304227	    -13.47241291	     -7.18537057	    -71.28015210	     -5.52107871	      2.72168865	      0.00000000	     -2.61643508	      6.73278045	     -3.44663515	    -12.36208904	     -0.35421303	      6.77962471	      0.00000000	    -23.84739209	     -5.03792434	     -9.26389890
      1.56700000	     10.41351064	      4.00099633	      1.14922676	      0.60337635	      1.00061537	     -0.01138028	     11.66223081	    -13.30630576	     -7.70848773	    -70.21305583	     -4.55718077	      3.33820319	      0.00000000	     -4.98442067	      6.65779561	     -2.61927617	    -10.72091489	     -0.07711177	      7.18618087	      0.00000000	    -24.15323521	     -4.55971505	    -10.22307222
      1.58300000	     10.89790215	      3.93128410	      1.58736861	      0.60252590	      1.00228678	     -0.01280313	     12.81899927	    -13.12029129	     -7.94410164	    -68.38780996	     -3.69015189	      4.26609100	      0.00000000	     -7.51570810	      6.49981016	     -2.60949075	     -9.28365701	      0.32526562	      8.13043880	      0.00000000	    -24.63504025	     -4.24387477	    -10.79320350
      1.60000000	     11.03651102	      3.88098241	      1.84429540	      0.60167705	      1.00301691	     -0.01398290	     14.26833570	    -12.85628791	     -7.95854154	    -65.96462514	     -3.21313113	      4.90965970	      0.00000000	     -9.72792800	      6.40359574	     -2.64921851	     -7.70050630	      0.57682569	      8.81549608	      0.00000000	    -24.77091785	     -3.98615951	    -11.01633691
      1.61700000	     11.04967596	      4.02554734	      2.23713376	      0.59905436	      1.00290898	     -0.01581040	     15.66351473	    -12.98398987	     -8.30549363	    -62.97424776	     -2.77140341	      5.37743459	      0.00000000	    -11.55903041	      6.54408836	     -1.99397146	     -6.37459033	      0.71634971	      8.83898023	      0.00000000	    -24.95996048	     -3.85343011	    -11.40553131
      1.63300000	     11.08919396	      3.86454581	      2.30318041	      0.59754180	      1.00231520	     -0.01660127	     16.70595890	    -12.61174334	     -8.54728139	    -59.21759128	     -2.36986500	      5.40613855	      0.00000000	    -13.33235458	      6.31839474	     -2.41409258	     -5.34026678	      1.28481234	      9.76887219	      0.00000000	    -24.97988982	     -3.53012791	    -11.45726377
      1.65000000	     11.13622329	      3.79522457	      2.21725657	      0.59551586	      1.00135689	     -0.01708254	     17.42700018	    -12.19916295	     -8.71116344	    -54.68657146	     -1.97902901	      4.75995070	      0.00000000	    -15.08769689	      6.16899208	     -2.95681720	     -4.24294832	      1.66590269	     10.89995011	      0.00000000	    -25.07366052	     -3.35691412	    -11.35896935
      1.66700000	     11.38948241	      3.36714688	      2.23177763	      0.59431373	      1.00055796	     -0.01687182	     17.28320524	    -11.33784744	     -9.37001424	    -49.21100810	     -1.91796925	      3.70434509	      0.00000000	    -17.13512569	      5.45783546	     -3.85054028	     -3.05384082	      2.10733293	     12.88722011	      0.00000000	    -25.35108604	     -2.83905547	    -11.10673138
